<svg width="32" height="32" viewBox="0 0 32 32" fill="none" xmlns="http://www.w3.org/2000/svg">
  <rect width="32" height="32" rx="6" fill="#2d5a27"/>
  <path d="M16 6C18.2 6 20 7.8 20 10V12H22C22.6 12 23 12.4 23 13V25C23 25.6 22.6 26 22 26H10C9.4 26 9 25.6 9 25V13C9 12.4 9.4 12 10 12H12V10C12 7.8 13.8 6 16 6ZM18 12V10C18 8.9 17.1 8 16 8S14 8.9 14 10V12H18ZM16 16C15.4 16 15 16.4 15 17V21C15 21.6 15.4 22 16 22S17 21.6 17 21V17C17 16.4 16.6 16 16 16Z" fill="#8bc34a"/>
  <path d="M8 5C8 5 10 4 12 6C12.5 6.5 13 7.5 13.5 8.5" stroke="#6b9f69" stroke-width="1.5" stroke-linecap="round" fill="none"/>
  <path d="M24 5C24 5 22 4 20 6C19.5 6.5 19 7.5 18.5 8.5" stroke="#6b9f69" stroke-width="1.5" stroke-linecap="round" fill="none"/>
</svg>